<svg xmlns="http://www.w3.org/2000/svg" width="12" height="12" viewBox="0 0 12 12">
    <g fill="none" fill-rule="evenodd">
        <g fill="#B2B2B2">
            <g>
                <g>
                    <g>
                        <path d="M3.157 11.722c.106.105.245.158.383.158s.276-.052.381-.158l5.4-5.385c.102-.101.159-.239.16-.381 0-.144-.058-.281-.159-.383L3.922.16c-.21-.211-.552-.212-.763-.001-.212.21-.212.552-.002.764l5.02 5.032-5.018 5.004c-.212.21-.212.552-.002.764" transform="translate(-331 -230) translate(0 124) translate(20 90) translate(311 16)"/>
                    </g>
                </g>
            </g>
        </g>
    </g>
</svg>
